# Blender v2.79 (sub 0) OBJ File: ''
# www.blender.org
mtllib Arrow.mtl
o Cube_Cube.001
v -0.000000 0.268346 1.000000
v -1.000000 0.268346 -1.000000
v 1.000000 0.268346 -1.000000
v 0.000000 -0.268346 1.000000
v -1.000000 -0.268346 -1.000000
v 1.000000 -0.268346 -1.000000
vn -0.0000 1.0000 0.0000
vn 0.0000 0.0000 -1.0000
vn 0.0000 -1.0000 0.0000
vn -0.8944 0.0000 0.4472
vn 0.8944 0.0000 0.4472
usemtl None
s off
f 1//1 3//1 2//1
f 2//2 3//2 6//2 5//2
f 5//3 6//3 4//3
f 2//4 5//4 4//4 1//4
f 6//5 3//5 1//5 4//5
